HIERARCHY
ROOT reference
{
  OFFSET 0 0 0
  CHANNELS 6 Xposition Yposition Zposition Zrotation Xrotation Yrotation
  JOINT Hips
  {
    OFFSET 347.352 87.9396 215.108
    CHANNELS 3 Zrotation Xrotation Yrotation
    JOINT RightUpLeg
    {
      OFFSET -9.26448 -1.5905 0.0349838
      CHANNELS 3 Zrotation Xrotation Yrotation
      JOINT RightLeg
      {
        OFFSET 0.0309074 -41.8937 0.0182011
        CHANNELS 3 Zrotation Xrotation Yrotation
        JOINT RightFoot
        {
          OFFSET 0.355296 -42.3801 0.810868
          CHANNELS 3 Zrotation Xrotation Yrotation
          End Site
          {
            OFFSET 0 -7.69 17.5
          }
        }
      }
    }
    JOINT LeftUpLeg
    {
      OFFSET 9.27369 -1.59127 -0.0547904
      CHANNELS 3 Zrotation Xrotation Yrotation
      JOINT LeftLeg
      {
        OFFSET 0.0553589 -41.8938 0.0587288
        CHANNELS 3 Zrotation Xrotation Yrotation
        JOINT LeftFoot
        {
          OFFSET 0.217916 -41.5497 -0.688939
          CHANNELS 3 Zrotation Xrotation Yrotation
          End Site
          {
            OFFSET 0 -7.69 17.5
          }
        }
      }
    }
    JOINT Spine
    {
      OFFSET 0.0383554 14.2988 0.0402393
      CHANNELS 3 Zrotation Xrotation Yrotation
      JOINT Spine1
      {
        OFFSET 0.0188251 9.70742 0.0136471
        CHANNELS 3 Zrotation Xrotation Yrotation
        JOINT Spine2
        {
          OFFSET 0.0421292 10.115 0.0126686
          CHANNELS 3 Zrotation Xrotation Yrotation
          JOINT Spine3
          {
            OFFSET 0.0499826 9.71803 0.0151296
            CHANNELS 3 Zrotation Xrotation Yrotation
            JOINT Neck
            {
              OFFSET 0.04654 10.3867 0.0448026
              CHANNELS 3 Zrotation Xrotation Yrotation
              JOINT Head
              {
                OFFSET 0.0370611 9.47282 0.0189897
                CHANNELS 3 Zrotation Xrotation Yrotation
                End Site
                {
                  OFFSET 0 15.95 0
                }
              }
            }
            JOINT RightShoulder
            {
              OFFSET -3.19309 6.93146 -0.00624137
              CHANNELS 3 Zrotation Xrotation Yrotation
              JOINT RightArm
              {
                OFFSET -12.7764 0.00688168 -0.00548706
                CHANNELS 3 Zrotation Xrotation Yrotation
                JOINT RightForeArm
                {
                  OFFSET -26.5073 -0.0244096 0.0677859
                  CHANNELS 3 Zrotation Xrotation Yrotation
                  JOINT RightHand
                  {
                    OFFSET -26.0056 -0.000416843 0.0508974
                    CHANNELS 3 Zrotation Xrotation Yrotation
                    JOINT RightHandThumb1
                    {
                      OFFSET -2.48905 0.190105 3.12053
                      CHANNELS 3 Zrotation Xrotation Yrotation
                      JOINT RightHandThumb2
                      {
                        OFFSET -3.68274 0 0
                        CHANNELS 3 Zrotation Xrotation Yrotation
                        JOINT RightHandThumb3
                        {
                          OFFSET -2.55832 0 0
                          CHANNELS 3 Zrotation Xrotation Yrotation
                          End Site
                          {
                            OFFSET -2.194 0 0
                          }
                        }
                      }
                    }
                    JOINT RightInHandIndex
                    {
                      OFFSET -3.22368 0.508421 1.97842
                      CHANNELS 3 Zrotation Xrotation Yrotation
                      JOINT RightHandIndex1
                      {
                        OFFSET -5.21684 -0.091368 0.999158
                        CHANNELS 3 Zrotation Xrotation Yrotation
                        JOINT RightHandIndex2
                        {
                          OFFSET -3.61937 0 0
                          CHANNELS 3 Zrotation Xrotation Yrotation
                          JOINT RightHandIndex3
                          {
                            OFFSET -2.0521 0 0
                            CHANNELS 3 Zrotation Xrotation Yrotation
                            End Site
                            {
                              OFFSET -1.805 0 0
                            }
                          }
                        }
                      }
                    }
                    JOINT RightInHandMiddle
                    {
                      OFFSET -3.38211 0.517263 0.756737
                      CHANNELS 3 Zrotation Xrotation Yrotation
                      JOINT RightHandMiddle1
                      {
                        OFFSET -5.17411 -0.084 0.313895
                        CHANNELS 3 Zrotation Xrotation Yrotation
                        JOINT RightHandMiddle2
                        {
                          OFFSET -3.94947 0 0
                          CHANNELS 3 Zrotation Xrotation Yrotation
                          JOINT RightHandMiddle3
                          {
                            OFFSET -2.47579 0 0
                            CHANNELS 3 Zrotation Xrotation Yrotation
                            End Site
                            {
                              OFFSET -1.975 0 0
                            }
                          }
                        }
                      }
                    }
                    JOINT RightInHandRing
                    {
                      OFFSET -3.36516 0.537895 -0.128947
                      CHANNELS 3 Zrotation Xrotation Yrotation
                      JOINT RightHandRing1
                      {
                        OFFSET -4.63474 -0.022105 -0.478947
                        CHANNELS 3 Zrotation Xrotation Yrotation
                        JOINT RightHandRing2
                        {
                          OFFSET -3.44238 0 0
                          CHANNELS 3 Zrotation Xrotation Yrotation
                          JOINT RightHandRing3
                          {
                            OFFSET -2.3881 0 0
                            CHANNELS 3 Zrotation Xrotation Yrotation
                            End Site
                            {
                              OFFSET -1.857 0 0
                            }
                          }
                        }
                      }
                    }
                    JOINT RightInHandPinky
                    {
                      OFFSET -3.16105 0.469368 -1.20179
                      CHANNELS 3 Zrotation Xrotation Yrotation
                      JOINT RightHandPinky1
                      {
                        OFFSET -4.14105 -0.022105 -1.09053
                        CHANNELS 3 Zrotation Xrotation Yrotation
                        JOINT RightHandPinky2
                        {
                          OFFSET -2.75653 0 0
                          CHANNELS 3 Zrotation Xrotation Yrotation
                          JOINT RightHandPinky3
                          {
                            OFFSET -1.74189 0 0
                            CHANNELS 3 Zrotation Xrotation Yrotation
                            End Site
                            {
                              OFFSET -1.645 0 0
                            }
                          }
                        }
                      }
                    }
                  }
                }
              }
            }
            JOINT LeftShoulder
            {
              OFFSET 3.25131 6.94393 -0.0111894
              CHANNELS 3 Zrotation Xrotation Yrotation
              JOINT LeftArm
              {
                OFFSET 12.7762 -0.0164608 -0.057961
                CHANNELS 3 Zrotation Xrotation Yrotation
                JOINT LeftForeArm
                {
                  OFFSET 26.494 -0.0292415 -0.00751187
                  CHANNELS 3 Zrotation Xrotation Yrotation
                  JOINT LeftHand
                  {
                    OFFSET 26.0005 -0.052199 0.00178648
                    CHANNELS 3 Zrotation Xrotation Yrotation
                    JOINT LeftHandThumb1
                    {
                      OFFSET 2.48905 0.190105 3.12053
                      CHANNELS 3 Zrotation Xrotation Yrotation
                      JOINT LeftHandThumb2
                      {
                        OFFSET 3.68274 0 0
                        CHANNELS 3 Zrotation Xrotation Yrotation
                        JOINT LeftHandThumb3
                        {
                          OFFSET 2.55832 0 0
                          CHANNELS 3 Zrotation Xrotation Yrotation
                          End Site
                          {
                            OFFSET 2.194 0 0
                          }
                        }
                      }
                    }
                    JOINT LeftInHandIndex
                    {
                      OFFSET 3.22368 0.508421 1.97842
                      CHANNELS 3 Zrotation Xrotation Yrotation
                      JOINT LeftHandIndex1
                      {
                        OFFSET 5.21684 -0.091368 0.999158
                        CHANNELS 3 Zrotation Xrotation Yrotation
                        JOINT LeftHandIndex2
                        {
                          OFFSET 3.61937 0 0
                          CHANNELS 3 Zrotation Xrotation Yrotation
                          JOINT LeftHandIndex3
                          {
                            OFFSET 2.0521 0 0
                            CHANNELS 3 Zrotation Xrotation Yrotation
                            End Site
                            {
                              OFFSET 1.805 0 0
                            }
                          }
                        }
                      }
                    }
                    JOINT LeftInHandMiddle
                    {
                      OFFSET 3.38211 0.517263 0.756737
                      CHANNELS 3 Zrotation Xrotation Yrotation
                      JOINT LeftHandMiddle1
                      {
                        OFFSET 5.17411 -0.084 0.313895
                        CHANNELS 3 Zrotation Xrotation Yrotation
                        JOINT LeftHandMiddle2
                        {
                          OFFSET 3.94947 0 0
                          CHANNELS 3 Zrotation Xrotation Yrotation
                          JOINT LeftHandMiddle3
                          {
                            OFFSET 2.47579 0 0
                            CHANNELS 3 Zrotation Xrotation Yrotation
                            End Site
                            {
                              OFFSET 1.975 0 0
                            }
                          }
                        }
                      }
                    }
                    JOINT LeftInHandRing
                    {
                      OFFSET 3.36516 0.537895 -0.128947
                      CHANNELS 3 Zrotation Xrotation Yrotation
                      JOINT LeftHandRing1
                      {
                        OFFSET 4.63474 -0.022105 -0.478947
                        CHANNELS 3 Zrotation Xrotation Yrotation
                        JOINT LeftHandRing2
                        {
                          OFFSET 3.44238 0 0
                          CHANNELS 3 Zrotation Xrotation Yrotation
                          JOINT LeftHandRing3
                          {
                            OFFSET 2.3881 0 0
                            CHANNELS 3 Zrotation Xrotation Yrotation
                            End Site
                            {
                              OFFSET 1.857 0 0
                            }
                          }
                        }
                      }
                    }
                    JOINT LeftInHandPinky
                    {
                      OFFSET 3.16105 0.469368 -1.20179
                      CHANNELS 3 Zrotation Xrotation Yrotation
                      JOINT LeftHandPinky1
                      {
                        OFFSET 4.14105 -0.022105 -1.09053
                        CHANNELS 3 Zrotation Xrotation Yrotation
                        JOINT LeftHandPinky2
                        {
                          OFFSET 2.75653 0 0
                          CHANNELS 3 Zrotation Xrotation Yrotation
                          JOINT LeftHandPinky3
                          {
                            OFFSET 1.74189 0 0
                            CHANNELS 3 Zrotation Xrotation Yrotation
                            End Site
                            {
                              OFFSET 1.645 0 0
                            }
                          }
                        }
                      }
                    }
                  }
                }
              }
            }
          }
        }
      }
    }
  }
}
MOTION
Frames: 2
Frame Time: 0.00833333
9.000000000000000000e+02 0.000000000000000000e+00 0.000000000000000000e+00 0.000000000000000000e+00 0.000000000000000000e+00 0.000000000000000000e+00 2.741174784350302573e+01 1.270070804770135275e+01 -6.175248759448551539e+01 -3.748157155070834534e+01 -5.269641523604427391e+01 -4.124588371534513698e+01 1.208412054274386804e+00 2.397543252250157053e+01 -8.784679452317726955e+00 1.155080953864532134e+01 8.415579911844744743e+00 2.008266530514200809e+01 1.887655893440031463e+01 -5.168498493999090471e+01 1.172590406927470674e+01 4.185878697236073975e+00 3.027476622154958363e+01 -5.843463843187647555e+00 -1.707998259951066800e+01 -8.891016154528518456e+00 -2.137717787043993667e+01 -1.303368869095132432e+01 1.026426384310896189e+01 2.511587689931389633e+01 -2.971035083350758832e+00 3.483617556661299908e+00 5.990435305724507664e+00 -4.867258216506097135e+00 5.882091815984123784e+00 9.357064726265544863e+00 2.551006348614436314e-01 -5.234960480902736135e-01 -1.366984615606184228e+00 6.439859034191039999e-01 -2.494101063400500085e-01 -6.258737732240231111e+00 3.611052717885199215e+00 -1.009864495923176975e+01 -2.202597033515174019e+01 5.460317656169391576e+00 -1.410856080323468653e+01 1.562655982210141481e+01 7.800185947572364853e+01 1.125065205956649450e+01 5.414773387210995992e+01 2.868420096568952005e+01 -5.519796451360409861e+01 9.153427875668425528e+00 1.781304970651701680e+01 -2.411264857006433715e+01 -2.456135169774380600e+01 2.818400000000000105e+01 1.072940000000000005e+01 1.915919999999999845e+01 1.302709320207853198e-14 -2.648665517307160904e-16 -1.000000000000000000e+01 -2.626432440301155457e-15 -6.843333518511680259e-16 -1.000000000000000000e+01 1.659882650635223914e-15 6.346248417067455750e-15 -3.851331312425877414e-15 1.998179999999999978e+01 8.718970000000000331e-01 2.396399999999999864e+00 2.400000000000000000e+01 7.279525024472603382e-15 2.886124474892462591e-14 2.000000000000000000e+01 -2.365989456006164982e-15 1.363224348001327277e-14 1.659882650635223914e-15 6.346248417067455750e-15 -3.851331312425877414e-15 2.000000000000000000e+01 -3.646817360777470587e-15 1.501352934522010023e-14 2.400000000000000000e+01 -1.096910963632122225e-15 2.935843199405840587e-14 2.000000000000000000e+01 1.370367703138325181e-14 2.184632802201979444e-14 1.659882650635223914e-15 6.346248417067455750e-15 -3.851331312425877414e-15 1.997479999999999833e+01 -1.025649999999999951e+00 -2.819380000000000219e+00 2.400000000000000000e+01 5.420503475949636072e-15 1.333568113079252870e-14 2.000000000000000000e+01 -3.814078364068046966e-15 9.491885374351257895e-15 1.659882650635223914e-15 6.346248417067455750e-15 -3.851331312425877414e-15 1.978150000000000119e+01 -3.009479999999999933e+00 -8.305149999999999366e+00 2.400000000000000000e+01 -2.108379178083791292e-15 1.467349452267451073e-14 2.000000000000000000e+01 1.705026393537118072e-15 1.451470010113512247e-14 1.774352170211072988e+01 -1.299192140538006868e+01 -2.806310330156708943e+01 -4.713624355134481902e+01 3.741574564997274166e+01 -6.251483936958872789e+01 9.284074734597419720e+00 -7.214012635057814293e+01 1.522910486006504627e+01 -2.632980374019777514e+01 -1.893228472451738753e+01 1.112207999922680202e+01 -2.818400000000000105e+01 1.072940000000000005e+01 -1.915919999999999845e+01 4.867029983024692025e-15 -6.746883113557813095e-15 1.000000000000000000e+01 -8.166161519236373054e-15 2.185360138525973611e-15 1.000000000000000000e+01 4.152346614546015611e-15 -7.954216993200490590e-15 -5.496733224198676564e-15 -1.998179999999999978e+01 8.718970000000000331e-01 -2.396399999999999864e+00 -2.400000000000000000e+01 1.054605915516335434e-15 -1.509555560024878967e-14 -2.000000000000000000e+01 5.893831744556003293e-15 -1.784050293648605751e-14 4.152346614546015611e-15 -7.954216993200490590e-15 -5.496733224198676564e-15 -2.000000000000000000e+01 7.088601571540185210e-15 9.566161665807865865e-16 -2.400000000000000000e+01 6.379020011520142128e-15 -6.327520142809046803e-15 -2.000000000000000000e+01 1.404183858940979130e-14 -2.259525409789035140e-14 4.152346614546015611e-15 -7.954216993200490590e-15 -5.496733224198676564e-15 -1.997479999999999833e+01 -1.025649999999999951e+00 2.819380000000000219e+00 -2.400000000000000000e+01 1.517875442589901110e-15 1.841616921146258182e-15 -2.000000000000000000e+01 4.626002400985127322e-15 -2.408103859512966662e-14 4.152346614546015611e-15 -7.954216993200490590e-15 -5.496733224198676564e-15 -1.978150000000000119e+01 -3.009479999999999933e+00 8.305149999999999366e+00 -2.400000000000000000e+01 3.540690397986845389e-15 -1.453999267107656493e-14 -2.000000000000000000e+01 -3.906266402558309961e-15 -8.724600934073052583e-15
9.000000000000000000e+02 0.000000000000000000e+00 0.000000000000000000e+00 0.000000000000000000e+00 0.000000000000000000e+00 0.000000000000000000e+00 2.742805340678569337e+01 1.267455827571351712e+01 -6.187861295180488952e+01 -3.736416520895986793e+01 -5.273444461256767113e+01 -4.113353033110166734e+01 1.197376313866639119e+00 2.398636921029090274e+01 -8.767558560640164700e+00 1.153902441084926878e+01 8.410102744019509302e+00 2.013529895131481595e+01 1.894082442433530389e+01 -5.161263639961093475e+01 1.176894322255370540e+01 4.158053936658717475e+00 3.026383460806926706e+01 -5.822967273806582078e+00 -1.708200659917550013e+01 -8.920505356253118023e+00 -2.130343204302229410e+01 -1.303605312069481847e+01 1.023558006982771573e+01 2.506042011035858508e+01 -2.972351147168266206e+00 3.474973606091503964e+00 5.977073304945404786e+00 -4.869322712714858170e+00 5.867693414887964920e+00 9.336856781274731176e+00 2.528981703422920058e-01 -5.230607583416514439e-01 -1.359016245314792704e+00 6.375565892870691531e-01 -2.519603625059065877e-01 -6.197767014146124964e+00 3.574086878219134622e+00 -1.008558437170287192e+01 -2.191053550557634821e+01 5.475409847748465175e+00 -1.407446886510368600e+01 1.558561890465476196e+01 7.798741657414255712e+01 1.111125298812915752e+01 5.406403853238469992e+01 2.876185437793845168e+01 -5.514717709162098203e+01 9.378617581465764630e+00 1.779454458106166825e+01 -2.410714702327811665e+01 -2.451865892406188507e+01 2.818400000000000105e+01 1.072940000000000005e+01 1.915919999999999845e+01 1.304921430389166197e-14 -2.702335344507048213e-16 -1.000000000000000000e+01 -2.611888021582424495e-15 -6.889846927484189539e-16 -1.000000000000000000e+01 1.652261552522132348e-15 6.344573519640821992e-15 -3.846399746543847719e-15 1.998179999999999978e+01 8.718970000000000331e-01 2.396399999999999864e+00 2.400000000000000000e+01 7.276321581499733034e-15 2.887644161821814545e-14 2.000000000000000000e+01 -2.364839538331197167e-15 1.365515690588987668e-14 1.652261552522132348e-15 6.344573519640821992e-15 -3.846399746543847719e-15 2.000000000000000000e+01 -3.639359092773714028e-15 1.500890362434198423e-14 2.400000000000000000e+01 -1.083299530361844341e-15 2.934183482954132203e-14 2.000000000000000000e+01 1.370513903668121194e-14 2.186130602160917465e-14 1.652261552522132348e-15 6.344573519640821992e-15 -3.846399746543847719e-15 1.997479999999999833e+01 -1.025649999999999951e+00 -2.819380000000000219e+00 2.400000000000000000e+01 5.414124575532483153e-15 1.333358634871017895e-14 2.000000000000000000e+01 -3.823800537612796690e-15 9.496389687093032311e-15 1.652261552522132348e-15 6.344573519640821992e-15 -3.846399746543847719e-15 1.978150000000000119e+01 -3.009479999999999933e+00 -8.305149999999999366e+00 2.400000000000000000e+01 -2.109120658461368736e-15 1.467706751207400656e-14 2.000000000000000000e+01 1.708873272521880931e-15 1.451103455280194027e-14 1.773976877563042009e+01 -1.299291527917530864e+01 -2.811358062630265664e+01 -4.705084349473373351e+01 3.741028476678467030e+01 -6.262275242425139510e+01 9.375243077454003426e+00 -7.202041754579326494e+01 1.523333140033707167e+01 -2.634288598951706106e+01 -1.891428285346104232e+01 1.110042350077531381e+01 -2.818400000000000105e+01 1.072940000000000005e+01 -1.915919999999999845e+01 4.871455170277147900e-15 -6.750003643457914751e-15 1.000000000000000000e+01 -8.158778643779109822e-15 2.185516421282083482e-15 1.000000000000000000e+01 4.155409112605360235e-15 -7.944258765237248006e-15 -5.486476742748618347e-15 -1.998179999999999978e+01 8.718970000000000331e-01 -2.396399999999999864e+00 -2.400000000000000000e+01 1.053512412155864552e-15 -1.510490964692794332e-14 -2.000000000000000000e+01 5.898414769951231299e-15 -1.783629583671946582e-14 4.155409112605360235e-15 -7.944258765237248006e-15 -5.486476742748618347e-15 -2.000000000000000000e+01 7.090287181831666391e-15 9.621540037213828224e-16 -2.400000000000000000e+01 6.378083910215084288e-15 -6.342228013043914543e-15 -2.000000000000000000e+01 1.403567847628738195e-14 -2.258849889805031167e-14 4.155409112605360235e-15 -7.944258765237248006e-15 -5.486476742748618347e-15 -1.997479999999999833e+01 -1.025649999999999951e+00 2.819380000000000219e+00 -2.400000000000000000e+01 1.518217105829853249e-15 1.833890145308586885e-15 -2.000000000000000000e+01 4.632137758174108837e-15 -2.405996804799049509e-14 4.155409112605360235e-15 -7.944258765237248006e-15 -5.486476742748618347e-15 -1.978150000000000119e+01 -3.009479999999999933e+00 8.305149999999999366e+00 -2.400000000000000000e+01 3.550241130675369137e-15 -1.453115740918527758e-14 -2.000000000000000000e+01 -3.898564530413943677e-15 -8.725678364425977986e-15
